<svg version="1.2" xmlns="http://www.w3.org/2000/svg" viewBox="0 0 578 578" width="578" height="578"><style>.a{fill:#f2f2f2}.b{fill:#ccc}.c{fill:#3f3d56}.d{fill:#2f2e41}.e{fill:#1e1f29}.f{fill:#8be9fd}.g{fill:#ff79c6}.h{fill:#f1fa8c}.i{fill:#50fa7b}.j{fill:#e6e6e6}.k{fill:#d89e89}.l{fill:#7f540b}.m{fill:#9f6e1b}.n{fill:#0c6a0c}.o{fill:#453538}.p{opacity:.2}.q{fill:#157902}</style><path class="a" d="m578 289c0 16.9-1.4 33.7-4.4 50.4-2.9 16.6-7.3 33-13.1 48.8-5.8 15.9-13 31.2-21.4 45.8-8.5 14.6-18.3 28.4-29.2 41.3q-2.4 2.9-4.9 5.7-7.3 8.2-15.2 15.8-7.9 7.7-16.4 14.7-8.5 7.1-17.5 13.4-8.9 6.4-18.4 12.1-8.6 5.2-17.7 9.8-0.9 0.4-1.8 0.9-1.1 0.5-2.2 1.1-5.8 2.8-11.6 5.3-5.8 2.6-11.8 4.8-5.9 2.3-12 4.3-6 2.1-12.2 3.8-2.5 0.7-5.1 1.4-8 2.1-16.2 3.8-8.2 1.7-16.4 2.8-8.3 1.2-16.6 1.9-8.3 0.8-16.6 1-1.8 0-3.4 0.1-0.6 0-1.2 0-1.8 0-3.7 0-8.8 0-17.5-0.5-8.8-0.5-17.5-1.6-8.7-1.1-17.4-2.6-8.6-1.6-17.1-3.7-3.5-0.9-6.9-1.8-4.4-1.2-8.8-2.6-4.5-1.3-8.8-2.8-4.4-1.6-8.7-3.2-4.4-1.6-8.6-3.4-9-3.8-17.7-8.1-2-1-3.9-2-0.8-0.4-1.6-0.9-11.6-6.1-22.5-13.2-11-7.1-21.2-15.1-10.3-8.1-19.8-17-9.5-9-18.2-18.7-2.4-2.7-4.7-5.5c-25.5-30.2-44.5-65.4-55.9-103.3-11.4-37.8-14.8-77.7-10.2-117 4.7-39.3 17.3-77.2 37.2-111.4 19.9-34.2 46.6-63.9 78.5-87.4q2.4-1.8 4.9-3.5 0.5-0.4 1-0.7 11-7.7 22.7-14.4 11.6-6.6 23.8-12.1 12.2-5.5 24.9-9.9 12.7-4.3 25.7-7.5 3-0.7 6-1.4 14.1-3 28.4-4.7 14.4-1.7 28.8-2 14.5-0.2 28.9 1 14.4 1.1 28.6 3.7 3 0.6 5.9 1.2 12.9 2.6 25.6 6.5 12.6 3.8 24.8 8.7 12.2 5 23.9 11.1 11.7 6 22.8 13.1 1 0.6 2 1.3 2 1.3 4 2.6c19.6 13.2 37.5 28.7 53.3 46.2 15.8 17.5 29.4 36.9 40.5 57.8 11 20.8 19.5 42.9 25.2 65.8 5.7 22.9 8.6 46.4 8.6 70z"/><path class="b" d="m216 438.5l-92.4 8.2-1 0.1v-394.1q0.5-0.4 1-0.7 7.2-5.1 14.7-9.7 7.6-4.6 15.3-8.7 7.8-4.1 15.8-7.8 8-3.6 16.2-6.8l4.8 65.1 0.4 6 4.7 64.5 1.4 19.9 18.9 261.7z"/><path class="b" d="m444.4 45.3q1 0.6 2 1.3v400.2l-2-0.2-91.3-8.1 0.1-2.3 19-261.7 1.4-19.9 4.7-64.5 0.4-6 4.9-68.2q8 2.7 15.9 6 7.8 3.2 15.4 6.9 7.6 3.7 15 7.8 7.4 4.2 14.5 8.7z"/><path class="b" d="m444.4 45.3q1 0.6 2 1.3v400.2l-2-0.2-91.3-8.1 0.1-2.3 19-261.7 1.4-19.9 4.7-64.5 0.4-6 4.9-68.2q8 2.7 15.9 6 7.8 3.2 15.4 6.9 7.6 3.7 15 7.8 7.4 4.2 14.5 8.7z"/><path class="b" d="m446.4 46.6q2 1.3 4 2.6v403.1c0 10-6 18.5-14 20.6q-0.5 0.2-1 0.3-0.5 0.1-1 0.1-0.5 0.1-1 0.1-0.5 0.1-1 0h-296.8q-0.5 0.1-1 0-0.5 0-1-0.1-0.5 0-1-0.1-0.5-0.1-1-0.3-1.1-0.3-2.1-0.7-1.1-0.5-2.1-1.1-1-0.6-1.8-1.3-0.9-0.7-1.7-1.5-1.5-1.6-2.7-3.5-1.2-1.9-2-3.9-0.8-2.1-1.2-4.3-0.4-2.1-0.3-4.3v-396.1q2.4-1.8 4.9-3.5 0.5-0.4 1-0.7v400.3q0 0.4 0.1 0.9 0 0.5 0 1 0.1 0.5 0.2 1 0.1 0.4 0.2 0.9c1.4 6 6 10.3 11.5 10.3h296.8c6.6 0 12-6.3 12-14.1v-407q1 0.6 2 1.3z"/><path class="b" d="m120.7 84.1h326.7v6h-326.7z"/><path class="b" d="m220.7 8.1q3-0.7 6-1.4v161.8h-6z"/><path class="b" d="m341.4 4.7q3 0.6 5.9 1.2v162.6h-5.9z"/><path class="b" d="m497.2 439.3c3.9 2.1 7.2 5.1 9.7 8.7 2.4 3.6 4 7.8 4.4 12.2 0.5 4.3-0.1 8.7-1.8 12.8q-0.1 0.5-0.3 0.9-0.2 0.5-0.5 0.9-0.2 0.5-0.4 0.9-0.3 0.4-0.5 0.9-0.3 0.5-0.7 1.1-0.3 0.5-0.7 1-0.4 0.5-0.8 1.1-0.4 0.5-0.8 0.9-1.9 2.2-4.2 3.9-2.3 1.7-4.9 2.9-2.6 1.1-5.4 1.7-2.8 0.6-5.7 0.6h-391.3c-7.1 0-13.9-2.8-18.9-7.8-5.1-5-7.9-11.9-7.9-19 0-7.1 2.8-13.9 7.9-18.9 5-5.1 11.8-7.9 18.9-7.9h391.3c4.4 0 8.8 1.1 12.6 3.1z"/><path class="b" d="m122.6 154.6h324.8v19.9h-324.8z"/><path class="b" d="m282 148.7h6c1.4 0 2.9 0.3 4.2 0.8 1.3 0.6 2.5 1.4 3.5 2.4 1 1 1.8 2.2 2.4 3.5 0.5 1.4 0.8 2.8 0.8 4.2h-27.8c0-1.4 0.3-2.8 0.9-4.2 0.5-1.3 1.3-2.5 2.3-3.5 1-1 2.2-1.8 3.6-2.4 1.3-0.5 2.7-0.8 4.1-0.8z"/><path class="c" d="m509.9 475.3q-3.2 3.9-6.6 7.6-3.4 3.8-6.9 7.4-3.6 3.6-7.2 7.1-3.6 3.5-7.4 6.9h-385.6q-3.8-3.4-7.4-6.9-3.6-3.5-7.2-7.1-3.5-3.6-6.9-7.4-3.4-3.7-6.6-7.6z"/><path fill-rule="evenodd" class="d" d="m322.6 375.3q0.6 0.3 1.1 0.8 0.5 0.5 0.8 1.1 0.2 0.6 0.2 1.3v102.6h-71.8v-102.6q0-0.5 0.2-1 0.1-0.6 0.5-1 0.3-0.5 0.8-0.8 0.4-0.3 0.9-0.5 0.2 0 0.3 0 0.1-0.1 0.2-0.1 0.2 0 0.3 0 0.1 0 0.3 0h64.9q0.7 0 1.3 0.2zm-25.9 38.5c0-2.1-0.8-4-2.3-5.4-1.4-1.4-3.3-2.2-5.4-2.2-2 0-3.9 0.8-5.4 2.2-1.4 1.4-2.2 3.3-2.2 5.4v11.9c0 1.6 0.5 3.1 1.4 4.4 1 1.3 2.3 2.3 3.8 2.8 1.5 0.5 3.2 0.5 4.7 0.1 1.5-0.5 2.9-1.4 3.8-2.7q0.4-0.5 0.7-1.1 0.3-0.5 0.5-1.1 0.2-0.6 0.3-1.2 0.1-0.6 0.1-1.2z"/><path class="c" d="m325 477.8v9.9q0 0.4-0.2 0.7-0.1 0.4-0.4 0.7-0.3 0.2-0.6 0.4-0.4 0.1-0.8 0.1h-68.4q-0.4 0-0.7-0.1-0.4-0.2-0.7-0.4-0.2-0.3-0.4-0.7-0.1-0.3-0.1-0.7v-9.9z"/><path class="c" d="m432.2 215.7c1.1 0.5 2.1 1.1 2.9 2 0.9 0.8 1.5 1.8 2 2.9 0.4 1.1 0.7 2.2 0.7 3.4v187.3c0 1.2-0.3 2.3-0.7 3.4-0.5 1.1-1.1 2.1-2 2.9-0.8 0.9-1.8 1.5-2.9 2-1.1 0.4-2.2 0.7-3.4 0.7h-277.5c-1.2 0-2.4-0.3-3.5-0.7-1.1-0.5-2-1.1-2.9-2-0.8-0.8-1.5-1.8-1.9-2.9-0.5-1.1-0.7-2.2-0.7-3.4v-187.3c0-1.2 0.2-2.3 0.7-3.4 0.4-1.1 1.1-2.1 1.9-2.9 0.9-0.9 1.8-1.5 2.9-2 1.1-0.4 2.3-0.7 3.5-0.7h277.5c1.2 0 2.3 0.3 3.4 0.7z"/><path class="e" d="m428.3 221.9q0.9 0.4 1.6 1 0.6 0.7 1 1.6 0.4 0.9 0.4 1.8v182.7q0 0.9-0.4 1.8-0.4 0.9-1 1.6-0.7 0.6-1.6 1-0.9 0.4-1.8 0.4h-272.9q-1 0-1.8-0.4-0.9-0.4-1.6-1-0.7-0.7-1.1-1.6-0.3-0.9-0.3-1.8v-182.7q0-0.9 0.3-1.8 0.4-0.9 1.1-1.6 0.7-0.6 1.5-1 0.9-0.4 1.9-0.4h272.9q0.9 0 1.8 0.4z"/><path class="d" d="m376.3 490.1q0 0.4-0.1 0.7-0.1 0.3-0.2 0.6-0.2 0.3-0.4 0.6-0.2 0.2-0.4 0.4-0.3 0.2-0.6 0.4-0.3 0.1-0.6 0.2-0.4 0.1-0.7 0.1h-162.3q-0.7 0-1.3-0.3-0.6-0.3-1-0.8-0.5-0.6-0.6-1.2-0.2-0.7-0.1-1.3l2.6-12q0-0.4 0.2-0.7 0.2-0.3 0.4-0.6 0.3-0.3 0.6-0.5 0.3-0.2 0.6-0.4 0.2 0 0.3 0 0.1-0.1 0.3-0.1 0.1 0 0.2 0 0.2-0.1 0.3-0.1h157.3q0.1 0 0.3 0.1 0.1 0 0.2 0 0.2 0 0.3 0.1 0.1 0 0.3 0 0.3 0.2 0.6 0.4 0.3 0.2 0.6 0.5 0.2 0.3 0.4 0.6 0.1 0.3 0.2 0.7l2.5 12q0.1 0.3 0.1 0.6z"/><path class="c" d="m214.6 477.8c0-0.3 0.3-0.5 0.5-0.5h4.1c0.2 0 0.4 0.2 0.4 0.5v2c0 0.3-0.2 0.5-0.4 0.5h-4.1c-0.2 0-0.5-0.2-0.5-0.5z"/><path class="c" d="m224.6 477.8c0-0.3 0.3-0.5 0.5-0.5h4.1c0.2 0 0.4 0.2 0.4 0.5v2c0 0.3-0.2 0.5-0.4 0.5h-4.1c-0.2 0-0.5-0.2-0.5-0.5z"/><path class="c" d="m234.6 477.8c0-0.3 0.3-0.5 0.5-0.5h4.1c0.2 0 0.4 0.2 0.4 0.5v2c0 0.3-0.2 0.5-0.4 0.5h-4.1c-0.2 0-0.5-0.2-0.5-0.5z"/><path class="c" d="m244.6 477.8c0-0.3 0.3-0.5 0.5-0.5h4.1c0.2 0 0.4 0.2 0.4 0.5v2c0 0.3-0.2 0.5-0.4 0.5h-4.1c-0.2 0-0.5-0.2-0.5-0.5z"/><path class="c" d="m254.6 477.8c0-0.3 0.3-0.5 0.5-0.5h4.1c0.2 0 0.4 0.2 0.4 0.5v2c0 0.3-0.2 0.5-0.4 0.5h-4.1c-0.2 0-0.5-0.2-0.5-0.5z"/><path class="c" d="m264.6 477.8c0-0.3 0.3-0.5 0.5-0.5h4.1c0.2 0 0.4 0.2 0.4 0.5v2c0 0.3-0.2 0.5-0.4 0.5h-4.1c-0.2 0-0.5-0.2-0.5-0.5z"/><path class="c" d="m274.6 477.8c0-0.3 0.3-0.5 0.5-0.5h4.1c0.2 0 0.4 0.2 0.4 0.5v2c0 0.3-0.2 0.5-0.4 0.5h-4.1c-0.2 0-0.5-0.2-0.5-0.5z"/><path class="c" d="m284.6 477.8c0-0.3 0.3-0.5 0.5-0.5h4.1c0.2 0 0.4 0.2 0.4 0.5v2c0 0.3-0.2 0.5-0.4 0.5h-4.1c-0.2 0-0.5-0.2-0.5-0.5z"/><path class="c" d="m294.6 477.8c0-0.3 0.3-0.5 0.5-0.5h4.1c0.2 0 0.4 0.2 0.4 0.5v2c0 0.3-0.2 0.5-0.4 0.5h-4.1c-0.2 0-0.5-0.2-0.5-0.5z"/><path class="c" d="m304.6 477.8c0-0.3 0.3-0.5 0.5-0.5h4.1c0.2 0 0.4 0.2 0.4 0.5v2c0 0.3-0.2 0.5-0.4 0.5h-4.1c-0.2 0-0.5-0.2-0.5-0.5z"/><path class="c" d="m314.6 477.8c0-0.3 0.3-0.5 0.5-0.5h4.1c0.2 0 0.4 0.2 0.4 0.5v2c0 0.3-0.2 0.5-0.4 0.5h-4.1c-0.2 0-0.5-0.2-0.5-0.5z"/><path class="c" d="m324.6 477.8c0-0.3 0.3-0.5 0.5-0.5h4.1c0.2 0 0.4 0.2 0.4 0.5v2c0 0.3-0.2 0.5-0.4 0.5h-4.1c-0.2 0-0.5-0.2-0.5-0.5z"/><path class="c" d="m334.6 477.8c0-0.3 0.3-0.5 0.5-0.5h4.1c0.2 0 0.4 0.2 0.4 0.5v2c0 0.3-0.2 0.5-0.4 0.5h-4.1c-0.2 0-0.5-0.2-0.5-0.5z"/><path class="c" d="m344.6 477.8c0-0.3 0.3-0.5 0.5-0.5h4.1c0.2 0 0.4 0.2 0.4 0.5v2c0 0.3-0.2 0.5-0.4 0.5h-4.1c-0.2 0-0.5-0.2-0.5-0.5z"/><path class="c" d="m354.6 477.8c0-0.3 0.3-0.5 0.5-0.5h4.1c0.2 0 0.4 0.2 0.4 0.5v2c0 0.3-0.2 0.5-0.4 0.5h-4.1c-0.2 0-0.5-0.2-0.5-0.5z"/><path class="c" d="m364.6 477.8c0-0.3 0.3-0.5 0.5-0.5h4.1c0.2 0 0.4 0.2 0.4 0.5v2c0 0.3-0.2 0.5-0.4 0.5h-4.1c-0.2 0-0.5-0.2-0.5-0.5z"/><path class="c" d="m214.5 482.8c0-0.3 0.2-0.5 0.5-0.5h4c0.3 0 0.5 0.2 0.5 0.5v2c0 0.3-0.2 0.5-0.5 0.5h-4c-0.3 0-0.5-0.2-0.5-0.5z"/><path class="c" d="m224.5 482.8c0-0.3 0.2-0.5 0.5-0.5h4c0.3 0 0.5 0.2 0.5 0.5v2c0 0.3-0.2 0.5-0.5 0.5h-4c-0.3 0-0.5-0.2-0.5-0.5z"/><path class="c" d="m234.5 482.8c0-0.3 0.2-0.5 0.5-0.5h4c0.3 0 0.5 0.2 0.5 0.5v2c0 0.3-0.2 0.5-0.5 0.5h-4c-0.3 0-0.5-0.2-0.5-0.5z"/><path class="c" d="m244.5 482.8c0-0.3 0.2-0.5 0.5-0.5h4c0.3 0 0.5 0.2 0.5 0.5v2c0 0.3-0.2 0.5-0.5 0.5h-4c-0.3 0-0.5-0.2-0.5-0.5z"/><path class="c" d="m254.5 482.8c0-0.3 0.2-0.5 0.5-0.5h4c0.3 0 0.5 0.2 0.5 0.5v2c0 0.3-0.2 0.5-0.5 0.5h-4c-0.3 0-0.5-0.2-0.5-0.5z"/><path class="c" d="m264.5 482.8c0-0.3 0.2-0.5 0.5-0.5h4c0.3 0 0.5 0.2 0.5 0.5v2c0 0.3-0.2 0.5-0.5 0.5h-4c-0.3 0-0.5-0.2-0.5-0.5z"/><path class="c" d="m274.5 482.8c0-0.3 0.2-0.5 0.5-0.5h4c0.3 0 0.5 0.2 0.5 0.5v2c0 0.3-0.2 0.5-0.5 0.5h-4c-0.3 0-0.5-0.2-0.5-0.5z"/><path class="c" d="m284.5 482.8c0-0.3 0.2-0.5 0.5-0.5h4c0.3 0 0.5 0.2 0.5 0.5v2c0 0.3-0.2 0.5-0.5 0.5h-4c-0.3 0-0.5-0.2-0.5-0.5z"/><path class="c" d="m294.5 482.8c0-0.3 0.2-0.5 0.5-0.5h4c0.3 0 0.5 0.2 0.5 0.5v2c0 0.3-0.2 0.5-0.5 0.5h-4c-0.3 0-0.5-0.2-0.5-0.5z"/><path class="c" d="m304.5 482.8c0-0.3 0.2-0.5 0.5-0.5h4c0.3 0 0.5 0.2 0.5 0.5v2c0 0.3-0.2 0.5-0.5 0.5h-4c-0.3 0-0.5-0.2-0.5-0.5z"/><path class="c" d="m314.5 482.8c0-0.3 0.2-0.5 0.5-0.5h4c0.3 0 0.5 0.2 0.5 0.5v2c0 0.3-0.2 0.5-0.5 0.5h-4c-0.3 0-0.5-0.2-0.5-0.5z"/><path class="c" d="m324.5 482.8c0-0.3 0.2-0.5 0.5-0.5h4c0.3 0 0.5 0.2 0.5 0.5v2c0 0.3-0.2 0.5-0.5 0.5h-4c-0.3 0-0.5-0.2-0.5-0.5z"/><path class="c" d="m334.5 482.8c0-0.3 0.2-0.5 0.5-0.5h4c0.3 0 0.5 0.2 0.5 0.5v2c0 0.3-0.2 0.5-0.5 0.5h-4c-0.3 0-0.5-0.2-0.5-0.5z"/><path class="c" d="m344.5 482.8c0-0.3 0.2-0.5 0.5-0.5h4c0.3 0 0.5 0.2 0.5 0.5v2c0 0.3-0.2 0.5-0.5 0.5h-4c-0.3 0-0.5-0.2-0.5-0.5z"/><path class="c" d="m354.5 482.8c0-0.3 0.2-0.5 0.5-0.5h4c0.3 0 0.5 0.2 0.5 0.5v2c0 0.3-0.2 0.5-0.5 0.5h-4c-0.3 0-0.5-0.2-0.5-0.5z"/><path class="c" d="m364.5 482.8c0-0.3 0.2-0.5 0.5-0.5h4c0.3 0 0.5 0.2 0.5 0.5v2c0 0.3-0.2 0.5-0.5 0.5h-4c-0.3 0-0.5-0.2-0.5-0.5z"/><path class="c" d="m262.5 488.8c0-0.3 0.2-0.5 0.5-0.5h39c0.3 0 0.5 0.2 0.5 0.5v2c0 0.3-0.2 0.5-0.5 0.5h-39c-0.3 0-0.5-0.2-0.5-0.5z"/><path class="f" d="m412.7 246.7h-255.3q-0.4 0-0.7-0.3-0.3-0.3-0.3-0.7 0-0.5 0.3-0.7 0.3-0.3 0.7-0.4h255.3q0.5 0.1 0.8 0.4 0.2 0.2 0.2 0.7 0 0.4-0.2 0.7-0.3 0.3-0.8 0.3z"/><ellipse class="g" cx="174.8" cy="233.4" rx="6" ry="6.1"/><ellipse class="h" cx="195.4" cy="233.4" rx="6" ry="6.1"/><ellipse class="i" cx="215.9" cy="233.4" rx="6" ry="6.1"/><path class="g" d="m401.1 229.1c0.2 0.2 0.4 0.5 0.4 0.8 0 0.3-0.2 0.6-0.4 0.8-0.2 0.2-0.4 0.3-0.7 0.3h-14.6c-0.3 0-0.6-0.1-0.8-0.3-0.2-0.2-0.3-0.5-0.3-0.8 0-0.3 0.1-0.6 0.3-0.8 0.2-0.2 0.5-0.3 0.8-0.3h14.6c0.3 0 0.5 0.1 0.7 0.3z"/><path class="h" d="m401.1 233.3c0.2 0.2 0.4 0.5 0.4 0.8 0 0.2-0.2 0.5-0.4 0.7-0.2 0.2-0.4 0.4-0.7 0.4h-14.6c-0.3 0-0.6-0.2-0.8-0.4-0.2-0.2-0.3-0.5-0.3-0.7 0-0.3 0.1-0.6 0.3-0.8 0.2-0.2 0.5-0.3 0.8-0.4h14.6c0.3 0.1 0.5 0.2 0.7 0.4z"/><path class="i" d="m401.1 237.4c0.2 0.2 0.4 0.5 0.4 0.8 0 0.3-0.2 0.6-0.4 0.8-0.2 0.2-0.4 0.3-0.7 0.3h-14.6c-0.3 0-0.6-0.1-0.8-0.3-0.2-0.2-0.3-0.5-0.3-0.8 0-0.3 0.1-0.6 0.3-0.8 0.2-0.2 0.5-0.3 0.8-0.3h14.6c0.3 0 0.5 0.1 0.7 0.3z"/><rect class="g" x="171.3" y="270.3" width="11" height="5.8" rx="2.9"></rect><rect class="i" x="231.3" y="270.3" width="11" height="5.8" rx="2.9"></rect><rect class="h" x="248.3" y="270.3" width="11" height="5.8" rx="2.9"></rect><rect class="j" x="187.6" y="269.8" width="38.4" height="5.8" rx="2.9"></rect><rect class="j" x="267.6" y="269.8" width="38.4" height="5.8" rx="2.9"></rect><rect class="g" x="187.3" y="283.3" width="11" height="5.8" rx="2.9"></rect><rect class="i" x="247.3" y="283.3" width="11" height="5.8" rx="2.9"></rect><rect class="i" x="264.3" y="283.3" width="11" height="5.8" rx="2.9"></rect><rect class="j" x="203.6" y="282.8" width="38.4" height="5.8" rx="2.9"></rect><rect class="j" x="283.6" y="282.8" width="38.4" height="5.8" rx="2.9"></rect><rect class="g" x="203.3" y="296.3" width="11" height="5.8" rx="2.9"></rect><rect class="i" x="263.3" y="296.3" width="11" height="5.8" rx="2.9"></rect><rect class="i" x="280.3" y="296.3" width="11" height="5.8" rx="2.9"></rect><rect class="j" x="219.6" y="295.8" width="38.4" height="5.8" rx="2.9"></rect><rect class="j" x="299.6" y="295.8" width="38.4" height="5.8" rx="2.9"></rect><rect class="g" x="219.3" y="309.3" width="11" height="5.8" rx="2.9"></rect><rect class="i" x="279.3" y="309.3" width="11" height="5.8" rx="2.9"></rect><rect class="i" x="296.3" y="309.3" width="11" height="5.8" rx="2.9"></rect><rect class="j" x="235.6" y="308.8" width="38.4" height="5.8" rx="2.9"></rect><rect class="i" x="231.3" y="361" width="11" height="5.8" rx="2.9"></rect><rect class="h" x="248.3" y="361" width="11" height="5.8" rx="2.9"></rect><rect class="i" x="267.6" y="361.4" width="38.4" height="5.8" rx="2.9"></rect><rect class="g" x="171.3" y="361" width="11" height="5.8" rx="2.9"></rect><rect class="j" x="187.6" y="361.4" width="38.4" height="5.8" rx="2.9"></rect><rect class="g" x="187.3" y="348" width="11" height="5.8" rx="2.9"></rect><rect class="i" x="247.3" y="348" width="11" height="5.8" rx="2.9"></rect><rect class="h" x="264.3" y="348" width="11" height="5.8" rx="2.9"></rect><rect class="j" x="203.6" y="348.4" width="38.4" height="5.8" rx="2.9"></rect><rect class="g" x="203.3" y="335" width="11" height="5.8" rx="2.9"></rect><rect class="f" x="263.3" y="335" width="11" height="5.8" rx="2.9"></rect><rect class="f" x="280.3" y="335" width="11" height="5.8" rx="2.9"></rect><rect class="j" x="219.6" y="335.4" width="38.4" height="5.8" rx="2.9"></rect><rect class="g" x="219.3" y="322" width="11" height="5.8" rx="2.9"></rect><rect class="f" x="279.3" y="322" width="11" height="5.8" rx="2.9"></rect><rect class="f" x="296.3" y="322" width="11" height="5.8" rx="2.9"></rect><rect class="j" x="235.6" y="322.4" width="38.4" height="5.8" rx="2.9"></rect><path class="k" d="m285.7 303.2l-5.2-15.2q-0.5-1.5-0.1-3.1 0.4-1.5 1.5-2.9 1.1-1.5 2.8-2.6c1.1-0.8 2.4-1.5 3.8-2 1.8-0.8 3.9-1.3 5.9-1.5 2-0.2 4.1-0.1 5.9 0.4 1.9 0.4 3.6 1.2 4.7 2.2 1.3 1.2 2 2.6 2 4.1l0.1 15.1 18.8 80.3-45.9-3.2z"/><path class="l" d="m392.5 424.6l-15 27 2 10c0 0 6 1 5 6-1 5-14-2-14-2l-5-19-5-15z"/><path class="l" d="m481.5 433.6c-15 3-18 28-18 28 0 0 8 5 3 7-5 2-12-2-12-2l-9-41c0 0 51 5 36 8z"/><path class="m" d="m505.8 376.2q0.7-0.8 1.3-1.5 0.6-0.8 1.2-1.5 0.6-0.8 1.2-1.6c3-4 5 10 5 10 0 0 8 4 9 9q0.3 1.4 0.7 2.8 0.4 1.4 0.8 2.8 0.4 1.4 0.9 2.8 0.4 1.3 0.9 2.7 0.2 0.5 0.2 0.9 0.1 0.5 0 1-0.1 0.5-0.2 0.9-0.2 0.4-0.5 0.8-0.5 0.8-1.1 1.5-0.5 0.8-1.1 1.5-0.6 0.7-1.2 1.4-0.7 0.7-1.3 1.3-0.7 0.5-1.4 1-0.7 0.4-1.5 0.6-0.8 0.3-1.6 0.4-0.8 0.1-1.6 0c-2.8-0.2-7.7-0.1-16 1.6-15 3-12 21-12 21 0 0 10 24 17 25 7 1 6 10 0 10-6 0-8.2-4.9-11-7q-4.2-3.1-8.3-6.4-4.1-3.2-8.1-6.6-4-3.4-7.9-6.9-3.9-3.5-7.7-7.1c-18-17-82 1-85 4-3 3-22 10-29 12-7 2-11 10-11 10 0 0 5 4 3 6-2.1 2.1-13 0-13-1 0-1 8-27 8-27l14-21c0 0 1-17 5-28 2.2-6.2-2.5-14-7-19.6q-2.3-2.8-4.3-5.8-2-3.1-3.7-6.3-1.6-3.3-2.9-6.7-1.3-3.4-2.2-6.9c-8.5-34.2 10.2-37.9 20.7-37.5q1.8 0 3.5 0.5 1.7 0.4 3.2 1.3 1.6 0.9 2.9 2.1 1.3 1.2 2.2 2.7c1.2 1.8 1.7 3.7 0.6 5.2-3 4-15-2-15-2-28 17 22 56 22 56 18-3 52-1 55 0 3 1 38 6 38 6 18 4 38-3 38-3q0.7-0.7 1.3-1.4z"/><path class="n" d="m415.8 548.8q-0.9 0.4-1.8 0.9c-15.8 7.9-28.5 12.4-45.8 17.3-1.4-16.3-2.8-45-4.2-62.7-0.4-4.6-0.7-8.5-1.1-11.2q0-0.6-0.1-1.1 0-0.5-0.2-1.1-0.1-0.5-0.2-1-0.2-0.6-0.4-1.1l0.1 4.3 0.2 11.2 0.8 64.1q-8 2.1-16.2 3.8-8.2 1.7-16.4 2.8-8.3 1.2-16.6 1.9-8.3 0.8-16.6 1-1.8 0-3.4 0.1-0.6 0-1.2 0-1.8 0-3.7 0-8.8 0-17.5-0.5-8.8-0.5-17.5-1.6-8.7-1.1-17.4-2.6-8.6-1.6-17.1-3.7c0.4-16.2 0.9-44.5 1.4-65.3 0.1-4.1 0.2-7.9 0.3-11.2 0.2-7.2 0.4-12.3 0.6-14.1q-0.1 0.1-0.1 0.3-0.1 0.1-0.1 0.2-0.1 0.1-0.1 0.2-0.1 0.2-0.1 0.3-0.4 1.6-0.6 3.2-0.3 1.7-0.6 3.3-0.2 1.6-0.4 3.3-0.2 1.6-0.3 3.3c-0.4 3.3-0.7 7.1-1.1 11.2-1.8 21.6-3.8 51-5.8 63.5q-4.4-1.2-8.8-2.6-4.5-1.3-8.8-2.8-4.4-1.6-8.7-3.2-4.4-1.6-8.6-3.4-9-3.8-17.7-8.1c1.1-7.2 2.2-15.3 3.4-23.7 0.9-6.5 1.9-13.1 2.9-19.7 1.5-10.2 3-20.2 4.6-29 2.2-12.8 4.6-23.1 6.9-27.9 2.2-4.5 4.4-8.9 6.5-13.2q1.2-2.2 2.2-4.3 0.3-0.5 0.5-1 2.3-4.6 4.5-8.6 1.8-3.5 3.4-6.5c2.7-4.9 4.9-8.8 6.6-11.3q2.5-3.9 5.8-7.3 3.2-3.4 6.9-6.3 3.7-2.8 7.9-5 4.2-2.1 8.6-3.6l0.3-0.1 0.2 0.1 20.5-6.2 3-1 2-0.6 7.1-5.4 3.8-2.9 3.6-2.8 7.1-5.3 43.7 2.7 8.5 20.5 19.1 6.9 0.3-0.1 0.3-0.1h0.3q4.5 1.5 8.6 3.6 4.2 2.2 7.9 5 3.8 2.9 7 6.3 3.2 3.4 5.8 7.3c0.9 1.5 2.1 3.3 3.3 5.6q1.7 2.8 3.6 6.5c1.9 3.4 3.9 7.3 6.1 11.5q0.7 1.3 1.4 2.8 1.3 2.6 2.7 5.4c2.1 4.2 4.3 8.6 6.5 13.2 1.9 3.9 3.9 11.9 5.8 22.1 1.5 8.5 3.1 18.6 4.6 29 2 13.5-0.1 29.7 1.7 42.1q0.1 1.2 0.3 2.4z"/><circle class="k" cx="289.6" cy="288.9" r="50.8"/><path class="o" d="m371.7 244.7q-0.2 0.2-0.4 0.5-0.2 0.2-0.4 0.5-0.1 0.2-0.3 0.5-0.2 0.2-0.5 0.5-1 1.2-2.1 2.2-1.2 1.1-2.5 2.1-1.2 0.9-2.6 1.7-1.3 0.9-2.8 1.5l-1-0.3c-0.7 4.6-2.9 8.4-6 10.3q-0.4 0.2-0.8 0.4-0.4 0.2-0.8 0.3-0.4 0.2-0.9 0.3-0.4 0.1-0.8 0.2c4.3 17.3 4.5 31.8 0.6 43.4q-0.2 0.7-0.5 1.5-0.2 0.7-0.5 1.4-0.3 0.7-0.6 1.4-0.3 0.8-0.7 1.5-0.5 1-1.1 2-0.6 1.1-1.2 2-0.6 1-1.3 2-0.7 0.9-1.4 1.9-0.6 0.6-1.1 1.2-0.5 0.6-1.1 1.2-0.5 0.6-1.1 1.1-0.6 0.6-1.2 1.1-0.6 0.6-1.3 1.1-1.3 1.1-2.7 2.1-1.4 1-2.9 1.9-1.5 1-3 1.8-1.6 0.8-3.2 1.5-2.8 1.1-5.6 2.1-2.9 0.9-5.9 1.7-3 0.7-6 1.2-3 0.4-6 0.7-2.3 0.2-4.6 0.3-2.3 0.1-4.6 0-2.3 0-4.6-0.1-2.3-0.1-4.6-0.4l-1.1-0.1v-0.3-0.8q0-0.3-0.1-0.6-0.1-2-0.4-4-0.2-1.9-0.6-3.8c-0.8 1.9-1.9 4.3-3.2 7-1.3 3-3 6.3-4.7 9.8q-1.4 2.7-2.8 5.5c-2.3 4.7-4.7 9.3-6.9 13.4-1.6 3-3 5.7-4.3 8-1.9 3.5-3.3 5.9-3.9 6.7l-1.6 2.4-1.1-4.9-1.2-5.2-1.7-7.6-0.8-3.2q-0.1-0.7-0.2-1.3-0.3-1.1-0.4-2.3-0.2-1.2-0.4-2.3-0.1-1.2-0.2-2.4 0-1.2-0.1-2.4 0-1.8 0.1-3.6 0.1-1.7 0.3-3.4 0.2-1.8 0.5-3.5 0.3-1.7 0.7-3.3 0.4-1.7 0.9-3.4 0.3-0.9 0.6-1.8 0.4-0.9 0.7-1.8 0.4-0.9 0.8-1.8 0.4-0.9 0.8-1.8 0.6-1.3 1.3-2.5 0.9-1.6 1.9-3.3 0.1-0.1 0.1-0.2 0.6-0.9 1.1-1.8 0.6-1 1-1.9 0.5-1 0.9-2 0.4-0.9 0.8-2 0.2-0.7 0.4-1.4 0.2-0.7 0.4-1.4 0.2-0.7 0.4-1.4 0.1-0.8 0.3-1.5 0.5-3.2 0.6-6.4 0-3.2-0.5-6.3-0.6-3.2-1.6-6.2-1.1-3-2.6-5.8-0.6-1.1-1.3-2.2-0.7-1.1-1.5-2.1-0.7-1-1.6-1.9-0.8-1-1.7-1.9-0.4-0.4-0.8-0.7-0.4-0.4-0.9-0.7-0.4-0.4-0.8-0.7-0.4-0.4-0.9-0.7-0.7-0.5-1.4-0.9-0.7-0.5-1.4-0.9-0.8-0.4-1.5-0.7-0.8-0.4-1.6-0.7-1.2-0.5-2.4-0.9-1.3-0.4-2.6-0.6-1.2-0.3-2.5-0.4-1.3-0.1-2.6-0.1h-1.3v-1.3q0-2.7 0.4-5.3 0.4-2.7 1.3-5.3 0.9-2.5 2.1-4.9 1.3-2.4 2.9-4.5 0.8-1.1 1.7-2.1c5.2-5.8 12.3-9.3 19-9.7 0.5-3.8 3.2-7.2 7.9-9.9q1-0.6 2.1-1.1 1-0.5 2.1-0.9 1.1-0.5 2.3-0.8 1.1-0.4 2.2-0.7 3.6-0.9 7.3-1.3 3.6-0.5 7.3-0.5 3.7 0 7.3 0.5 3.7 0.4 7.3 1.3 1.4 0.4 2.9 0.8 1.4 0.5 2.8 1 1.4 0.5 2.8 1.1 1.4 0.7 2.7 1.3 0.1-0.5 0.2-1 0.1-0.6 0.2-1.1 0.1-0.5 0.3-1.1 0.2-0.5 0.4-1 0.4-0.9 0.9-1.8 0.5-0.9 1.1-1.8 0.7-0.8 1.4-1.5 0.7-0.7 1.5-1.4 0.4-0.3 0.9-0.6 0.4-0.2 0.8-0.5 0.5-0.2 0.9-0.4 0.5-0.2 1-0.4 1-0.4 2-0.6 1-0.2 2.1-0.2 1.1-0.1 2.1 0 1.1 0.1 2.1 0.3c14.4-11.2 28.5-7 36.2 2.4q0.6 0.8 1.1 1.5 0.6 0.8 1.1 1.6 0.5 0.8 0.9 1.7 0.5 0.8 0.8 1.7c3.2 7.3 3.2 15.9-1.7 23.2z"/><path class="p" d="m206.3 475.3l8.5-32.8 7.5 28.3-16 4.5z"/><path class="d" d="m432.4 453.9c-3 41.9 0.1 60.3-16.6 94.9q-5.8 2.8-11.6 5.3-5.8 2.6-11.8 4.8-5.9 2.3-12 4.3-6 2.1-12.2 3.8-2.5 0.7-5.1 1.4-8 2.1-16.2 3.8-8.2 1.7-16.4 2.8-8.3 1.2-16.6 1.9-8.3 0.8-16.6 1-1.8 0-3.4 0.1-0.6 0-1.2 0-1.8 0-3.7 0-8.8 0-17.5-0.5-8.8-0.5-17.5-1.6-8.7-1.1-17.4-2.6-8.6-1.6-17.1-3.7-3.5-0.9-6.9-1.8-4.4-1.2-8.8-2.6-4.5-1.3-8.8-2.8-4.4-1.6-8.7-3.2-4.4-1.6-8.6-3.4-9-3.8-17.7-8.1-2-1-3.9-2c-6.6-11.7-10.4-25.9-10.5-42.9 4.6-29.4 276.7-74.2 286.8-48.9z"/><path class="p" d="m146.5 509.8q-0.3-3.9-0.4-7.9c4.6-29.3 276.7-74.2 286.9-48.9q-0.3 4.2-0.6 8.1c-16.3-22.9-274.8 19.7-285.9 48.7z"/><path fill-rule="evenodd" class="d" d="m169 394.3q-0.1 1-0.5 2-0.4 0.9-1 1.7-0.7 0.7-1.6 1.3-0.8 0.5-1.8 0.7l-25.9 5.9q-1 0.2-2 0.1-1-0.1-2-0.5-0.9-0.4-1.7-1.1-0.7-0.7-1.2-1.6l-13.5-37.9q-0.4 0.3-0.9 0.6-0.4 0.3-0.9 0.6-0.5 0.2-1 0.4-0.6 0.2-1.1 0.3c-2.5 0.5-5.1 0.1-7.3-1.3-2.1-1.3-3.7-3.5-4.2-6-0.6-2.5-0.2-5.1 1.2-7.3 1.4-2.2 3.5-3.7 6-4.3q0.3 0 0.5-0.1 0.2 0 0.4 0 0.2-0.1 0.4-0.1 0.2 0 0.5 0 0.3-0.6 0.7-1.1 0.5-0.6 1-1 0.6-0.4 1.2-0.7 0.6-0.3 1.3-0.5l39.7-8.9q0.2-0.1 0.3-0.1 0.1 0 0.2 0 0.2 0 0.3 0 0.1-0.1 0.2-0.1 1.4 0 2.7 0.4 1.3 0.5 2.3 1.5 0.9 1 1.4 2.3 0.5 1.3 0.4 2.7zm-54.8-30.5q0.4-0.2 0.8-0.4 0.4-0.2 0.7-0.5 0.4-0.2 0.7-0.5l-4.9-8.6q-0.3-0.4-0.4-0.8-0.2-0.4-0.3-0.8-0.1-0.4-0.1-0.8-0.1-0.5-0.1-0.9c-0.1 0-0.2 0-0.4 0-1.8 0.4-3.3 1.5-4.3 3.1-0.9 1.5-1.3 3.4-0.8 5.2 0.4 1.8 1.5 3.3 3 4.3 1.6 1 3.4 1.3 5.2 0.9q0.4-0.1 0.9-0.2z"/><path class="c" d="m156.3 335.3c0.4 5.1-8.2 10.8-19.7 13.1-10.6 2.2-20.1 0.7-22.8-3.3q0.2-0.1 0.5-0.2 0.2-0.1 0.4-0.2 0.2-0.1 0.4-0.1 0.2-0.1 0.5-0.2l39.7-8.9q0.2-0.1 0.3-0.1 0.1 0 0.2 0 0.2 0 0.3 0 0.1-0.1 0.2-0.1z"/><path class="k" d="m112.1 414.5l-18.2-22.7c-1.6-2-2.7-4.2-3.4-6.5-0.7-2.4-1-4.9-0.7-7.3 0.2-2.5 0.9-4.8 2-7 1.2-2.2 2.7-4.2 4.6-5.8 2.5-2.1 5.6-3.6 8.9-4.2 3.3-0.7 6.7-0.4 9.9 0.7 3.1 1.1 5.9 3 8.1 5.5 2.2 2.6 3.7 5.7 4.4 8.9l4.9 25.4 18.6 50.2-22.4 11.2z"/><path class="n" d="m167.9 479.7l36.6-78c2-4 4.7-7.5 8.1-10.3 3.5-2.9 7.4-5 11.7-6.2 4.3-1.2 8.8-1.5 13.1-0.8 4.4 0.6 8.6 2.2 12.4 4.6 3.5 2.1 6.5 5 8.8 8.3 2.4 3.3 4.1 7.1 5 11.1 1 3.9 1.2 8.1 0.5 12.1-0.6 4.1-2 7.9-4.1 11.4l-59.9 102.8c-1.7 2.8-3.8 5.3-6.3 7.4-2.5 2.2-5.3 3.9-8.3 5.2-3 1.2-6.2 2-9.4 2.3-3.3 0.3-6.6 0-9.8-0.8-2.6-0.6-5-1.5-7.4-2.8-2.3-1.2-4.5-2.8-6.5-4.6-1.9-1.8-3.6-3.8-5-6.1-1.5-2.2-2.6-4.6-3.4-7.2l-22.6-70.8 29.8-14.9z"/><path class="q" d="m142 378.4q-0.1 0-0.1 0 0 0 0 0 0 0-0.1 0 0 0 0 0l-6.5-2.2q-0.1-0.1-0.2-0.2-0.1-0.1-0.1-0.2-0.1-0.1 0-0.2 0-0.1 0.1-0.2l4.8-5.3q0.2-0.2 0.4-0.2 0.2 0 0.3 0.2 0.2 0.1 0.2 0.3 0 0.2-0.1 0.4l-4.3 4.7 5.7 2q0.2 0 0.3 0.2 0.1 0.1 0.1 0.3-0.1 0.2-0.2 0.3-0.2 0.1-0.3 0.1z"/><path class="q" d="m150.9 376.6q-0.2 0-0.3-0.1-0.1-0.1-0.2-0.2 0-0.1 0-0.3 0-0.1 0.1-0.2l4.4-4.3-5.9-2.4q-0.2-0.1-0.2-0.3-0.1-0.2-0.1-0.4 0.1-0.2 0.3-0.2 0.2-0.1 0.4 0l6.6 2.7q0.1 0 0.2 0.1 0.1 0.1 0.1 0.2 0 0.2 0 0.3 0 0.1-0.1 0.2l-5 4.8q0 0 0 0-0.1 0.1-0.1 0.1-0.1 0-0.1 0-0.1 0-0.1 0z"/><path class="q" d="m143.3 381.5q0 0 0 0 0 0 0 0-0.1 0-0.1 0 0 0 0 0-0.1-0.1-0.2-0.1-0.1-0.1-0.1-0.2-0.1-0.1-0.1-0.2 0-0.1 0.1-0.1l4.6-15q0-0.2 0.2-0.3 0.2-0.1 0.4-0.1 0.2 0.1 0.3 0.3 0.1 0.1 0 0.3l-4.6 15q0 0.1-0.1 0.2 0 0.1-0.1 0.1 0 0-0.1 0.1-0.1 0-0.2 0z"/></svg>